<?xml version="1.0" encoding="UTF-8" standalone="no"?>
<!-- Created with Inkscape (http://www.inkscape.org/) -->

<svg
   width="180mm"
   height="40mm"
   viewBox="0 0 180 40.000001"
   version="1.1"
   id="svg1"
   xml:space="preserve"
   inkscape:version="1.3.2 (091e20ef0f, 2023-11-25)"
   sodipodi:docname="contrib.svg"
   xmlns:inkscape="http://www.inkscape.org/namespaces/inkscape"
   xmlns:sodipodi="http://sodipodi.sourceforge.net/DTD/sodipodi-0.dtd"
   xmlns="http://www.w3.org/2000/svg"
   xmlns:svg="http://www.w3.org/2000/svg"><sodipodi:namedview
     id="namedview1"
     pagecolor="#ffffff"
     bordercolor="#000000"
     borderopacity="0.25"
     inkscape:showpageshadow="2"
     inkscape:pageopacity="0.0"
     inkscape:pagecheckerboard="0"
     inkscape:deskcolor="#d1d1d1"
     inkscape:document-units="mm"
     inkscape:zoom="1.0771772"
     inkscape:cx="161.06914"
     inkscape:cy="175.92278"
     inkscape:window-width="1920"
     inkscape:window-height="1011"
     inkscape:window-x="0"
     inkscape:window-y="32"
     inkscape:window-maximized="1"
     inkscape:current-layer="layer1" /><defs
     id="defs1" /><g
     inkscape:label="Layer 1"
     inkscape:groupmode="layer"
     id="layer1"
     transform="translate(-15.992288,-29.444066)"><circle
       style="fill:#000000;fill-opacity:0;stroke:#2563eb;stroke-width:0.695646;stroke-opacity:1"
       id="path1"
       cx="32.228313"
       cy="47.085285"
       r="10" /><path
       style="fill:#000000;fill-opacity:1;stroke:#000000;stroke-width:0.637;stroke-opacity:1"
       d="m 51.44902,46.262017 24.857455,0.21873"
       id="path3" /><circle
       style="fill:#000000;fill-opacity:0;stroke:#2563eb;stroke-width:0.695646;stroke-opacity:1"
       id="path1-9"
       cx="103.41418"
       cy="47.899513"
       r="10" /><circle
       style="fill:#000000;fill-opacity:0;stroke:#2563eb;stroke-width:0.695646;stroke-opacity:1"
       id="path1-97"
       cx="180.35359"
       cy="47.782551"
       r="10" /><path
       style="fill:#000000;fill-opacity:1;stroke:#000000;stroke-width:0.464212;stroke-opacity:1"
       d="m 131.35631,47.189521 24.8737,0.116085"
       id="path3-2" /><path
       fill="currentColor"
       d="m 31.288984,50.539409 v 0.705556 h -0.705556 v -0.705556 z m 1.411111,0 v 0.705556 h -0.705556 v -0.705556 z m 1.411111,0 v 0.705556 H 33.40565 v -0.705556 z m 1.058333,-0.705556 h -5.644444 a 0.70555556,0.70555556 0 0 1 -0.705556,-0.705555 v -4.233333 a 0.70555556,0.70555556 0 0 1 0.705556,-0.705556 h 5.644444 a 0.70555556,0.70555556 0 0 1 0.705556,0.705556 v 4.233333 a 0.70555556,0.70555556 0 0 1 -0.705556,0.705555 m -3.175,-2.469444 h -0.705555 v 0.705556 h 0.705555 z m 2.822223,0 h -2.116667 v 0.705556 h 2.116667 z m -4.233334,-1.411111 h -0.705555 v 0.705555 h 0.705555 z m 4.233334,0 h -3.527778 v 0.705555 h 3.527778 z"
       id="path1-94"
       style="stroke-width:0.352778" /><text
       xml:space="preserve"
       style="font-size:3.88056px;font-family:FreeMono;-inkscape-font-specification:FreeMono;fill:#4d4d4d;stroke-width:0.637"
       x="25.514874"
       y="63.533405"
       id="text1"><tspan
         sodipodi:role="line"
         id="tspan1"
         style="font-size:3.88056px;stroke-width:0.637"
         x="25.514874"
         y="63.533405">Parser</tspan></text><text
       xml:space="preserve"
       style="font-size:3.88056px;font-family:FreeMono;-inkscape-font-specification:FreeMono;fill:#4d4d4d;stroke-width:0.637"
       x="93.129944"
       y="64.377663"
       id="text2"><tspan
         sodipodi:role="line"
         id="tspan2"
         style="stroke-width:0.637"
         x="93.129944"
         y="64.377663">Inference</tspan></text><text
       xml:space="preserve"
       style="font-size:3.88056px;font-family:FreeMono;-inkscape-font-specification:FreeMono;fill:#4d4d4d;stroke-width:0.637"
       x="177.476"
       y="63.385963"
       id="text3"><tspan
         sodipodi:role="line"
         id="tspan3"
         style="stroke-width:0.637"
         x="177.476"
         y="63.385963">LSP</tspan></text><path
       fill="currentColor"
       d="m 101.43622,51.095084 1.46756,-4.265083 -0.28928,-0.673806 h -0.47272 v -0.705556 h 0.70555 c 0.14817,0 0.27517,0.09172 0.32809,0.22225 l 2.02141,4.716639 h 0.47272 v 0.705556 H 104.964 c -0.1517,0 -0.2787,-0.09525 -0.32808,-0.225778 l -1.31939,-3.072694 -1.13242,3.298472 z"
       id="path1-5"
       style="stroke-width:0.352778" /><path
       fill="currentColor"
       d="m 177.71129,43.997811 h 5.64444 a 0.35277778,0.35277778 0 0 1 0.35278,0.352778 V 45.7617 a 0.35277778,0.35277778 0 0 1 -0.35278,0.352778 h -5.64444 A 0.35277778,0.35277778 0 0 1 177.35851,45.7617 v -1.411111 a 0.35277778,0.35277778 0 0 1 0.35278,-0.352778 m 0,2.822222 h 5.64444 a 0.35277778,0.35277778 0 0 1 0.35278,0.352778 v 1.411111 a 0.35277778,0.35277778 0 0 1 -0.35278,0.352778 h -5.64444 a 0.35277778,0.35277778 0 0 1 -0.35278,-0.352778 v -1.411111 a 0.35277778,0.35277778 0 0 1 0.35278,-0.352778 m 0,2.822223 h 5.64444 a 0.35277778,0.35277778 0 0 1 0.35278,0.352777 v 1.411111 a 0.35277778,0.35277778 0 0 1 -0.35278,0.352778 h -5.64444 a 0.35277778,0.35277778 0 0 1 -0.35278,-0.352778 v -1.411111 a 0.35277778,0.35277778 0 0 1 0.35278,-0.352777 m 1.76389,-4.233334 h 0.35278 v -0.705555 h -0.35278 z m 0,2.822222 h 0.35278 v -0.705555 h -0.35278 z m 0,2.822223 h 0.35278 v -0.705556 h -0.35278 z m -1.41111,-6.35 v 0.705555 h 0.70555 v -0.705555 z m 0,2.822222 v 0.705555 h 0.70555 v -0.705555 z m 0,2.822222 v 0.705556 h 0.70555 v -0.705556 z"
       id="path1-1"
       style="stroke-width:0.352778" /></g></svg>
